<?xml version="1.0" encoding="utf-8"?>
<!-- Generator: Adobe Illustrator 23.0.3, SVG Export Plug-In . SVG Version: 6.00 Build 0)  -->
<svg version="1.1" id="Capa_1" xmlns="http://www.w3.org/2000/svg" xmlns:xlink="http://www.w3.org/1999/xlink" x="0px" y="0px"
	 viewBox="0 0 512 512" style="enable-background:new 0 0 512 512;" xml:space="preserve">
<style type="text/css">
	.st0{fill-rule:evenodd;clip-rule:evenodd;fill:#00D1B2;}
	.st1{fill-rule:evenodd;clip-rule:evenodd;fill:#E6E6E6;}
	.st2{fill-rule:evenodd;clip-rule:evenodd;fill:#FCC368;}
	.st3{fill-rule:evenodd;clip-rule:evenodd;fill:#F78411;}
	.st4{fill-rule:evenodd;clip-rule:evenodd;fill:#C2C7CC;}
	.st5{fill-rule:evenodd;clip-rule:evenodd;fill:#F74311;}
	.st6{opacity:0.1;fill-rule:evenodd;clip-rule:evenodd;fill:#333333;enable-background:new    ;}
	.st7{fill-rule:evenodd;clip-rule:evenodd;fill:#EDA93B;}
	.st8{fill:#333333;}
</style>
<g>
	<path class="st0" d="M42.69,65.38v381.24c0,9.93,8.14,18.1,18.12,18.1h37.22V47.29H60.81C50.84,47.29,42.69,55.42,42.69,65.38z"/>
	<path class="st1" d="M380.51,47.29H98.03v417.43h282.48c9.97,0,18.12-8.16,18.12-18.1c0-106.32,0-127.34,0-381.24
		C398.63,55.42,390.49,47.29,380.51,47.29z"/>
	<path class="st2" d="M347.72,325.34l-7.51,45.45c-0.6,3.82,0.52,7.1,2.65,9.31c3.28,3.41,8.91,4.18,14.05,0.06l35.06-30
		l-11.18-34.99L347.72,325.34z"/>
	<path class="st0" d="M481.65,138.95c-12.16-6.83-27.71-2.46-34.54,9.69l-4.64,8.22l9.04,33.82l35.2-8.98l4.62-8.22
		C498.1,161.44,493.92,145.86,481.65,138.95z"/>
	<path class="st3" d="M442.46,156.86l-43.83,77.93l-50.91,90.54l44.24,24.81l6.67-11.87l88.07-156.55v-0.03L442.46,156.86z"/>
	<path class="st4" d="M365.43,65.38v228.45l33.2-59.04V65.38c0-9.96-8.14-18.1-18.12-18.1h-33.2
		C357.28,47.29,365.43,55.42,365.43,65.38z"/>
	<path class="st4" d="M391.96,350.15l-26.54,22.71v73.76c0,9.93-8.14,18.1-18.12,18.1h33.2c9.97,0,18.12-8.16,18.12-18.1V338.28
		L391.96,350.15z"/>
	<path class="st5" d="M376.88,341.69l15.09,8.46l6.67-11.87l88.07-156.55v-0.03l-15.08-8.46v0.03L376.88,341.69z"/>
	<path class="st6" d="M468.92,135.73c11.48,4.47,11.88,21.21,7.35,29.29l-4.64,8.22l15.08,8.46l4.62-8.22
		c6.78-12.04,2.6-27.63-9.67-34.53C477.63,136.71,473.23,135.68,468.92,135.73z"/>
	<path class="st7" d="M376.88,341.69l-35.06,30.03c-0.57,0.46-1.18,0.87-1.77,1.2c0.03,2.92,1.09,5.41,2.81,7.18
		c3.28,3.41,8.91,4.18,14.05,0.06l8.52-7.29l26.54-22.71L376.88,341.69z"/>
	<path class="st6" d="M73.41,47.29h24.62v417.43H73.41V47.29z"/>
</g>
<path class="st8" d="M500.66,152.35c-2.34-8.45-7.82-15.46-15.44-19.75c-15.69-8.81-35.64-3.21-44.45,12.46l-4.64,8.22
	c0,0,0,0,0,0.01c0,0,0,0-0.01,0l-30.19,53.69V65.38c0-14-11.4-25.38-25.41-25.38H258.47c-4.03,0-7.29,3.26-7.29,7.29
	c0,4.02,3.26,7.28,7.29,7.28h122.04c5.97,0,10.83,4.85,10.83,10.81v167.51l-49.98,88.87c-0.02,0.04-0.04,0.08-0.06,0.12
	c-0.07,0.13-0.13,0.26-0.2,0.39c-0.04,0.09-0.08,0.18-0.12,0.27c-0.05,0.12-0.1,0.25-0.15,0.38c-0.03,0.11-0.07,0.21-0.1,0.32
	c-0.03,0.12-0.07,0.24-0.1,0.35c-0.03,0.12-0.06,0.24-0.08,0.37c-0.01,0.06-0.03,0.12-0.04,0.18l-7.52,45.49
	c-0.17,1.07-0.24,2.13-0.24,3.17H150.44c-4.02,0-7.28,3.26-7.28,7.29c0,4.02,3.26,7.29,7.28,7.29h189.82c0.3,0.2,0.61,0.4,0.93,0.59
	c2.6,1.51,5.46,2.26,8.36,2.26c4.09,0,8.25-1.49,11.9-4.4c0.06-0.05,0.13-0.1,0.19-0.16l29.7-25.41v86.35
	c0,5.96-4.86,10.81-10.83,10.81H105.32V54.57h117.87c4.02,0,7.28-3.26,7.28-7.28c0-4.03-3.26-7.29-7.28-7.29H60.81
	c-14.01,0-25.4,11.39-25.4,25.38v29.27c-17.92,1.88-27.26,13.38-27.26,24.76c0,7.02,3.51,13.73,9.63,18.39
	c4.66,3.55,10.67,5.84,17.63,6.77v39.81c-17.92,1.88-27.26,13.38-27.26,24.76c0,7.02,3.51,13.73,9.63,18.39
	c4.66,3.55,10.67,5.85,17.63,6.77v39.78c-17.92,1.88-27.26,13.38-27.26,24.76c0,7.02,3.51,13.73,9.63,18.39
	c4.66,3.55,10.67,5.85,17.63,6.77v37.99c-16.58,2.51-25.2,13.56-25.2,24.5c0,7.02,3.51,13.73,9.63,18.39
	c4.2,3.2,9.48,5.37,15.58,6.45v35.29c0,14,11.39,25.38,25.4,25.38h319.7c14.01,0,25.41-11.39,25.41-25.38V340.2l28.3-50.33
	c1.97-3.51,0.73-7.95-2.78-9.93c-3.51-1.97-7.95-0.73-9.92,2.78l-29.16,51.85c-0.07,0.11-0.13,0.23-0.19,0.34l-2.99,5.31
	l-31.53-17.68l87.6-155.77l31.53,17.71l-40.99,72.86c-1.97,3.51-0.73,7.95,2.78,9.93c3.51,1.97,7.95,0.73,9.93-2.78l44.47-79.04
	c0.03-0.06,0.08-0.11,0.11-0.16l4.61-8.23C501.92,169.52,502.98,160.75,500.66,152.35z M26.6,126.2c-2.5-1.91-3.89-4.32-3.89-6.79
	c0-4.36,4.35-8.75,12.69-10.06v20.47C31.11,129,28.33,127.52,26.6,126.2z M26.6,215.93c-2.5-1.91-3.89-4.32-3.89-6.79
	c0-4.36,4.35-8.75,12.69-10.06v20.47C31.11,218.72,28.33,217.24,26.6,215.93z M26.6,305.63c-2.5-1.91-3.89-4.32-3.89-6.79
	c0-4.36,4.35-8.75,12.69-10.06v20.47C31.11,308.42,28.33,306.94,26.6,305.63z M28.66,393.28c-2.5-1.91-3.89-4.32-3.89-6.8
	c0-3.99,3.63-8,10.63-9.65v19.6C32.25,395.58,30.1,394.37,28.66,393.28z M49.98,446.62v-34.51h16.6c4.02,0,7.28-3.26,7.28-7.28
	c0-4.03-3.26-7.29-7.28-7.29h-16.6v-73.08H64.5c4.02,0,7.28-3.26,7.28-7.28c0-4.03-3.26-7.29-7.28-7.29H49.98v-75.12H64.5
	c4.02,0,7.28-3.26,7.28-7.29s-3.26-7.29-7.28-7.29H49.98v-75.15H64.5c4.02,0,7.28-3.26,7.28-7.29c0-4.02-3.26-7.28-7.28-7.28H49.98
	V65.38c0-5.96,4.86-10.81,10.83-10.81h29.93v402.86H60.81C54.84,457.43,49.98,452.58,49.98,446.62z M379.29,351.4l-27.02,23.12
	c-0.6,0.46-1.18,0.78-1.73,0.96c-0.83-1.02-1.93-1.79-3.19-2.24c-0.04-0.39-0.03-0.81,0.05-1.26l5.82-35.2L379.29,351.4z
	 M452.4,154.08l1.05-1.87c4.89-8.69,15.93-11.79,24.62-6.92c4.21,2.37,7.24,6.25,8.53,10.93c1.29,4.66,0.71,9.51-1.64,13.69
	l-1.04,1.86L452.4,154.08z"/>
<path class="st8" d="M351.33,120.5H150.44c-4.02,0-7.28,3.26-7.28,7.29c0,4.02,3.26,7.28,7.28,7.28h200.88
	c4.03,0,7.29-3.26,7.29-7.28C358.62,123.76,355.35,120.5,351.33,120.5z"/>
<path class="st8" d="M351.33,183.58H150.44c-4.02,0-7.28,3.26-7.28,7.29c0,4.02,3.26,7.28,7.28,7.28h200.88
	c4.03,0,7.29-3.26,7.29-7.28C358.62,186.85,355.35,183.58,351.33,183.58z"/>
<path class="st8" d="M358.61,253.95c0-4.03-3.26-7.29-7.28-7.29H150.44c-4.02,0-7.28,3.26-7.28,7.29s3.26,7.29,7.28,7.29h200.88
	C355.35,261.24,358.61,257.98,358.61,253.95z"/>
<path class="st8" d="M150.44,309.73c-4.02,0-7.28,3.26-7.28,7.28c0,4.03,3.26,7.29,7.28,7.29h160.11c4.02,0,7.28-3.26,7.28-7.29
	c0-4.02-3.26-7.28-7.28-7.28H150.44z"/>
</svg>
